<?xml version="1.0" standalone="no"?>
<!DOCTYPE svg PUBLIC "-//W3C//DTD SVG 20010904//EN"
 "http://www.w3.org/TR/2001/REC-SVG-20010904/DTD/svg10.dtd">
<svg version="1.0" xmlns="http://www.w3.org/2000/svg"
 width="2000.000000pt" height="2000.000000pt" viewBox="0 0 2000.000000 2000.000000"
 preserveAspectRatio="xMidYMid meet">
<metadata>
Created by potrace 1.11, written by Peter Selinger 2001-2013
</metadata>
<g transform="translate(0.000000,2000.000000) scale(0.100000,-0.100000)"
fill="#000000" stroke="none">
<path d="M13113 16848 c0 -42 -15 -142 -28 -189 -8 -30 -17 -61 -19 -70 -3 -9
-9 -25 -14 -35 -5 -11 -16 -32 -23 -49 -18 -39 -87 -155 -102 -170 -7 -6 -23
-27 -37 -46 -34 -47 -171 -182 -255 -254 -38 -32 -75 -64 -81 -69 -7 -6 -33
-27 -59 -46 -25 -19 -57 -44 -70 -55 -13 -11 -33 -27 -45 -35 -12 -8 -39 -27
-59 -43 -20 -15 -47 -36 -61 -46 -14 -10 -50 -37 -80 -60 -30 -22 -59 -44 -65
-48 -5 -5 -28 -22 -50 -38 -22 -17 -42 -32 -45 -35 -3 -3 -21 -17 -40 -30 -19
-14 -42 -30 -50 -37 -8 -7 -44 -35 -80 -63 -83 -66 -185 -150 -250 -207 -14
-12 -36 -31 -50 -43 -96 -82 -370 -345 -370 -356 0 -3 -17 -21 -38 -42 -37
-35 -146 -159 -188 -211 -10 -13 -33 -40 -49 -60 -26 -31 -47 -56 -122 -151
-6 -8 -27 -34 -45 -56 -18 -23 -42 -54 -53 -69 -11 -16 -25 -33 -30 -39 -21
-22 -232 -312 -254 -349 -13 -21 -28 -43 -34 -50 -7 -7 -21 -28 -31 -47 -11
-19 -23 -37 -26 -40 -7 -5 -72 -109 -113 -180 -52 -91 -147 -263 -147 -266 0
-2 -22 -50 -50 -107 -27 -57 -50 -106 -50 -109 0 -3 -10 -27 -22 -54 -12 -27
-22 -51 -23 -54 0 -5 -16 -47 -35 -95 -18 -45 -40 -114 -60 -185 -29 -103 -31
-112 -35 -135 -2 -11 -4 -20 -5 -20 -3 0 -20 -82 -36 -174 -3 -18 -8 -43 -10
-55 -2 -11 -7 -41 -10 -66 -3 -25 -8 -58 -10 -75 -9 -62 -13 -481 -5 -518 5
-22 5 -39 0 -43 -5 -3 -6 -11 -2 -17 9 -14 10 -20 17 -100 3 -34 8 -75 11 -91
3 -15 8 -47 10 -70 2 -22 9 -70 15 -106 6 -36 13 -81 15 -100 3 -19 8 -51 10
-70 3 -19 8 -53 11 -75 3 -22 7 -51 9 -65 2 -14 7 -52 10 -85 4 -33 8 -62 10
-65 6 -10 19 -219 19 -313 0 -109 -17 -152 -28 -70 -12 91 -15 108 -20 133
-13 58 -20 97 -22 120 -1 14 -3 26 -4 28 -3 2 -3 4 -14 57 -4 22 -11 51 -14
65 -3 14 -6 35 -6 48 -1 12 -4 22 -7 22 -3 0 -6 6 -6 13 -1 13 -21 96 -48 192
-9 33 -18 67 -20 75 -2 8 -8 26 -13 40 -5 14 -10 27 -10 30 -1 8 -7 28 -41
130 -17 52 -32 102 -33 110 -2 8 -7 18 -11 21 -5 3 -10 12 -11 20 -2 8 -6 23
-10 34 -5 11 -15 38 -23 60 -8 22 -21 55 -29 72 -8 18 -21 50 -30 70 -9 21
-35 76 -58 123 -22 47 -40 88 -39 92 1 3 -4 12 -12 18 -8 7 -15 17 -15 22 0
15 -128 235 -207 357 -76 116 -227 319 -282 379 -17 18 -31 35 -31 37 0 12
-291 310 -371 380 -65 58 -235 200 -269 225 -18 14 -38 30 -44 35 -6 6 -21 17
-32 25 -98 68 -190 136 -192 142 -2 4 -8 8 -12 8 -8 0 -98 59 -135 87 -5 5
-22 14 -37 22 -16 8 -28 18 -28 23 0 4 -7 8 -15 8 -8 0 -15 5 -15 10 0 6 -6
10 -13 10 -8 0 -22 9 -32 20 -10 11 -22 20 -27 20 -6 0 -71 43 -123 82 -5 4
-64 47 -130 95 -66 48 -122 90 -125 94 -3 3 -34 30 -70 60 -105 86 -118 98
-240 219 -123 122 -222 232 -272 302 -17 24 -35 46 -41 49 -5 4 -14 15 -20 27
-7 11 -38 56 -69 101 -31 44 -65 95 -75 113 -10 18 -23 38 -30 45 -6 7 -15 22
-18 33 -3 11 -11 20 -17 20 -6 0 -8 3 -5 7 4 3 1 13 -7 22 -7 9 -29 45 -47 81
-19 36 -37 67 -40 70 -4 3 -18 28 -32 57 -15 28 -30 54 -34 56 -5 3 -9 -41 -9
-98 -1 -57 -4 -107 -6 -112 -4 -7 -3 -30 2 -35 1 -2 2 -63 4 -135 1 -85 -2
-133 -9 -133 -6 0 -6 -3 1 -8 6 -4 12 -36 13 -72 6 -177 9 -219 15 -228 3 -6
2 -13 -4 -17 -6 -4 -7 -11 -4 -17 7 -11 12 -52 18 -163 3 -38 5 -70 6 -70 1 0
3 -18 6 -40 3 -40 9 -87 20 -175 3 -25 7 -65 9 -90 2 -25 4 -45 5 -45 2 0 9
-36 15 -82 3 -23 8 -59 11 -80 4 -21 8 -47 9 -58 1 -11 3 -20 4 -20 2 0 4 -11
7 -25 11 -65 13 -77 19 -100 3 -14 7 -41 9 -60 3 -19 10 -48 16 -65 6 -16 11
-31 10 -33 -1 -1 1 -15 4 -30 4 -15 9 -37 11 -49 3 -13 7 -31 10 -40 2 -10 13
-54 25 -98 11 -44 24 -91 29 -105 14 -40 46 -144 47 -155 0 -5 4 -17 7 -25 4
-8 18 -49 32 -90 15 -41 29 -82 32 -90 4 -8 7 -17 8 -20 1 -3 9 -23 19 -45 9
-22 20 -52 23 -67 3 -16 9 -28 14 -28 5 0 9 -8 9 -18 0 -10 3 -22 7 -26 5 -4
8 -11 9 -14 2 -24 130 -278 203 -405 31 -54 63 -110 71 -124 8 -15 23 -36 33
-47 9 -11 17 -26 17 -33 0 -7 5 -13 10 -13 6 0 10 -6 10 -14 0 -8 3 -16 8 -18
4 -2 36 -43 72 -93 76 -105 82 -113 137 -174 23 -25 43 -49 43 -53 0 -12 248
-259 325 -324 130 -110 320 -248 398 -289 20 -11 37 -23 37 -26 0 -4 11 -10
25 -13 14 -4 25 -11 25 -16 0 -6 6 -10 13 -10 6 0 28 -10 47 -22 19 -12 37
-23 40 -23 10 -2 125 -60 130 -65 23 -25 489 -196 582 -214 7 -1 33 -8 58 -15
25 -7 54 -15 65 -17 23 -4 59 -12 95 -20 57 -13 107 -23 145 -28 23 -4 52 -9
65 -11 23 -5 64 -11 135 -20 27 -3 73 -8 205 -20 25 -2 45 -4 45 -5 0 -1 31
-3 68 -4 37 -2 70 -6 73 -9 3 -2 -2 -31 -11 -63 -22 -81 -19 -70 -64 -254 -38
-157 -93 -415 -105 -490 -3 -19 -10 -60 -16 -90 -6 -30 -13 -71 -16 -90 -3
-19 -9 -57 -14 -85 -11 -60 -12 -64 -56 -386 -2 -20 -7 -56 -9 -80 -2 -24 -7
-66 -10 -94 -9 -85 -14 -137 -21 -215 -3 -41 -7 -91 -9 -110 -25 -263 -25
-966 0 -1210 9 -85 18 -219 19 -267 1 -29 3 -53 6 -53 6 0 8 -16 15 -120 1
-25 6 -63 9 -85 6 -40 15 -117 21 -190 5 -53 13 -96 19 -103 3 -3 0 -12 -7
-20 -9 -13 -9 -14 1 -8 8 5 12 -1 13 -21 0 -15 2 -35 4 -43 1 -8 6 -35 10 -60
10 -72 13 -87 40 -255 61 -372 86 -509 151 -815 8 -41 36 -163 61 -270 24
-107 47 -205 49 -217 2 -13 27 -116 54 -230 61 -258 67 -283 81 -363 10 -52
39 -183 53 -235 16 -57 68 -160 103 -204 51 -63 72 -83 209 -198 241 -200 329
-242 430 -203 68 25 89 61 88 145 -1 38 -9 93 -18 120 -31 91 -80 210 -93 226
-7 8 -13 20 -13 26 0 5 -19 45 -42 89 -24 44 -54 104 -68 134 -13 30 -30 62
-37 71 -7 8 -13 19 -13 23 0 4 -14 38 -31 74 -82 178 -165 414 -249 712 -10
36 -35 121 -55 190 -119 411 -282 1043 -315 1225 -4 22 -21 108 -38 190 -17
83 -33 167 -36 187 -3 21 -10 57 -15 80 -5 24 -12 63 -15 88 -3 25 -8 54 -10
65 -2 11 -7 42 -10 68 -4 27 -9 56 -10 65 -6 31 -16 107 -21 157 -3 28 -8 70
-11 95 -11 92 -12 107 -20 210 -4 58 -8 123 -10 145 -5 54 -4 778 1 985 4 184
13 399 20 505 9 137 16 231 21 270 2 22 6 63 9 90 3 28 8 66 11 85 3 19 7 51
9 70 5 37 15 102 21 135 2 11 7 34 10 50 3 17 9 48 15 70 5 22 12 48 14 59 31
135 125 376 146 376 5 0 9 6 9 13 0 14 55 15 125 2 126 -23 487 -23 595 0 14
3 43 7 65 10 22 2 56 8 75 13 19 5 38 9 43 10 4 1 8 2 10 3 1 0 13 2 27 5 14
2 56 14 93 25 37 12 73 22 80 23 7 2 24 8 38 14 15 6 35 12 45 14 11 2 21 5
24 9 3 3 28 13 55 23 95 35 314 146 415 210 19 12 68 44 107 69 40 26 77 47
83 47 5 0 10 3 10 8 0 4 42 36 93 70 50 35 106 74 122 85 89 64 194 144 225
169 19 17 52 44 73 61 20 18 69 62 108 100 39 37 76 67 82 67 6 0 8 3 4 6 -3
3 20 33 51 66 31 33 72 76 90 95 17 19 32 38 32 41 0 4 13 21 28 37 38 41 202
271 202 283 0 6 4 12 9 14 9 3 23 26 92 148 23 41 46 78 51 81 5 3 9 9 9 13
-1 8 62 140 71 146 3 3 10 18 13 33 4 15 11 27 15 27 4 0 11 11 14 24 3 14 20
55 37 92 17 37 32 72 34 78 1 6 7 25 14 41 41 100 65 166 106 295 26 80 50
152 52 160 3 8 7 22 8 30 4 22 46 183 52 200 3 8 7 22 9 30 1 8 5 26 8 40 6
27 14 63 21 95 3 11 7 30 10 43 11 47 13 58 20 102 4 25 9 54 12 65 6 31 41
245 47 290 17 128 34 267 41 345 3 25 7 68 10 95 10 100 18 222 19 317 0 54 5
98 9 98 5 0 5 5 1 11 -10 16 -11 109 -1 109 5 0 5 6 0 13 -8 13 -8 15 -17 122
-8 103 -16 164 -31 235 -2 14 -7 36 -10 50 -2 14 -7 39 -10 55 -2 17 -16 77
-31 135 -14 58 -27 113 -29 122 -2 9 -8 25 -13 35 -6 10 -11 23 -11 28 -1 6
-7 28 -13 50 -14 49 -13 47 -20 65 -35 92 -56 160 -50 160 4 0 2 4 -4 8 -6 4
-25 45 -44 92 -73 188 -210 466 -338 685 -97 167 -109 184 -109 163z"/>
</g>
</svg>
